<svg version="1" xmlns="http://www.w3.org/2000/svg" width="300" height="300" viewBox="0 0 225.000000 225.000000"><path d="M0 112.5V225h225V0H0v112.5zm114.6-66.6c4.7 2.3 8.7 4.8 9 5.4.5 1.3-14.2 51.7-15.4 52.9-.4.4-4.5-1.2-9.1-3.5l-8.4-4.2-12.6.1c-10.9 0-13.7.4-20.6 2.7-4.4 1.4-8.3 2.3-8.7 1.9-.6-.6 3.3-14.9 12.7-45.8l2.5-8.1 8.7-2.6c12.6-3.7 11.8-3.6 23-3.3 9.8.3 10.7.5 18.9 4.5zM146.3 64c11.6 4.1 24.4 3.4 40.2-2 3.9-1.3 6.2-1.7 6.9-1 1.2 1.2-13.2 50.8-15.6 53.2-2.3 2.3-13.1 5.5-22.6 6.7-7.3.9-14.9.4-22.7-1.4-3.7-.9-18.5-8.4-18.5-9.4 0-1.8 15.3-51.7 16.1-52.8.8-.9 2.2-.5 5.9 1.8 2.7 1.7 7.3 3.9 10.3 4.9zm-57.8 41.6c7.3 1.8 18.6 8 18 9.7-.3.6-3.8 12.4-7.9 26.1-4.1 13.7-7.9 25.3-8.4 25.8-.6.6-3-.2-6.3-2.1-12.2-6.8-27.6-7.8-43.4-2.7-4.9 1.6-8.3 2.2-8.9 1.6-1-1 13-50.7 14.8-52.6 1.3-1.4 12.3-5.1 18.7-6.3 7.1-1.4 17-1.2 23.4.5zm40.8 21.5c10.2 3.4 25.9 2.7 40-1.8 3.2-1 5.2-1.2 5.8-.6.7.7-1.6 10.1-6.4 26.4-8.5 29.2-6.9 27-22.7 31-12.2 3.1-25.5 2.4-36.5-1.9-4.4-1.8-9.2-4.2-10.8-5.4l-2.8-2.3 7.6-25.4c4.1-14 8-26 8.6-26.7.8-1 2.1-.7 6 1.7 2.8 1.6 7.8 3.9 11.2 5z"/></svg>